<?xml version="1.0" standalone="no"?>
<!DOCTYPE svg PUBLIC "-//W3C//DTD SVG 20010904//EN"
 "http://www.w3.org/TR/2001/REC-SVG-20010904/DTD/svg10.dtd">
<svg version="1.0" xmlns="http://www.w3.org/2000/svg"
 width="1075.000000pt" height="1002.000000pt" viewBox="0 0 1075.000000 1002.000000"
 preserveAspectRatio="xMidYMid meet">

<g transform="translate(0.000000,1002.000000) scale(0.100000,-0.100000)"
fill="#000000" stroke="none">
<path d="M5322 7414 c-35 -18 -62 -59 -62 -94 0 -55 57 -110 115 -110 94 0
142 110 78 179 -35 38 -86 47 -131 25z"/>
<path d="M3611 7174 c-27 -34 -26 -50 4 -79 30 -31 65 -32 93 -2 27 29 28 61
2 87 -29 29 -74 26 -99 -6z"/>
<path d="M7040 7180 c-26 -26 -25 -64 2 -90 29 -27 64 -25 93 5 30 29 31 45 4
79 -25 32 -70 35 -99 6z"/>
<path d="M5280 7108 c-163 -116 -384 -208 -587 -243 -314 -55 -676 -1 -942
141 -46 24 -85 44 -87 44 -2 0 -4 -634 -4 -1408 0 -1549 -2 -1491 61 -1687 91
-278 265 -514 492 -666 163 -109 294 -165 532 -229 264 -70 412 -170 576 -390
l53 -72 26 33 c76 100 178 214 226 252 126 99 175 120 494 212 488 142 808
469 938 958 l27 102 3 1448 c1 797 -1 1447 -5 1445 -5 -2 -55 -26 -113 -55
-491 -240 -1079 -191 -1522 128 -37 27 -71 49 -75 48 -5 0 -46 -28 -93 -61z
m1678 -1573 c1 -813 -1 -1294 -8 -1336 -15 -101 -57 -235 -104 -335 -156 -329
-420 -532 -851 -654 -109 -31 -216 -68 -272 -95 -111 -54 -233 -144 -298 -220
l-48 -56 -75 77 c-87 88 -217 178 -326 223 -41 17 -142 50 -223 72 -184 51
-270 85 -402 163 -233 137 -405 349 -499 618 -64 181 -62 122 -62 1534 l0
1284 1583 -2 1582 -3 3 -1270z"/>
<path d="M5253 6725 c-331 -90 -454 -486 -230 -742 42 -47 135 -107 200 -129
57 -19 67 -28 67 -63 0 -77 -67 -176 -141 -205 -22 -9 -79 -20 -126 -25 -102
-10 -132 -29 -152 -92 -8 -24 -14 -45 -15 -46 -1 -1 -44 11 -96 28 -175 54
-370 88 -598 104 -77 5 -83 4 -78 -12 3 -10 28 -99 56 -198 28 -99 98 -341
156 -538 57 -196 104 -361 104 -364 0 -4 -31 23 -69 61 -47 47 -74 67 -85 63
-14 -6 -16 -40 -16 -287 0 -154 2 -280 4 -280 2 0 23 7 46 15 23 8 46 15 50
15 5 0 17 -30 29 -67 42 -135 142 -282 258 -377 119 -99 298 -175 444 -190 94
-10 172 -50 236 -120 30 -33 58 -74 65 -98 l12 -40 22 48 c11 27 39 69 62 94
58 66 121 97 238 115 104 17 217 51 287 86 180 91 354 293 409 474 11 39 22
72 24 74 2 2 24 -4 50 -13 26 -9 51 -16 56 -16 10 0 11 333 1 473 -3 58 -10
97 -17 97 -6 0 -46 -35 -88 -77 l-78 -78 14 50 c118 399 316 1089 313 1091 -1
2 -69 -1 -150 -6 -166 -11 -345 -44 -504 -95 -60 -19 -111 -35 -115 -35 -5 0
-8 9 -8 21 0 67 -63 119 -143 119 -65 0 -158 28 -197 59 -49 40 -80 103 -80
166 l0 51 50 13 c54 14 148 71 194 117 104 105 151 254 126 394 -48 264 -324
435 -587 365z m207 -45 c87 -16 166 -58 216 -113 24 -27 44 -55 44 -62 0 -8
-54 -43 -119 -80 l-119 -66 -34 21 c-43 26 -107 26 -141 0 -14 -11 -28 -20
-31 -20 -11 0 -220 120 -235 135 -12 11 -6 22 41 68 104 105 233 144 378 117z
m-318 -310 c112 -62 118 -67 118 -97 0 -70 85 -124 158 -100 42 14 82 66 82
107 0 23 13 34 121 94 66 37 126 66 133 63 23 -9 39 -92 34 -175 -6 -99 -45
-186 -113 -255 -46 -46 -161 -114 -173 -103 -11 12 83 86 129 101 l49 17 0 64
0 64 -305 0 -305 0 0 -65 c0 -62 1 -65 28 -71 44 -11 95 -40 126 -73 16 -17
27 -33 24 -36 -2 -3 -32 9 -65 25 -118 59 -207 191 -220 323 -8 93 19 193 51
185 6 -2 64 -32 128 -68z m496 -286 c3 -28 -1 -32 -41 -48 -150 -57 -217 -229
-142 -365 53 -96 125 -136 264 -148 84 -7 117 -28 127 -80 l7 -33 -478 0 -477
0 6 33 c10 52 43 73 127 80 139 12 211 52 264 148 38 69 40 161 5 234 -25 52
-99 117 -155 135 -29 9 -35 16 -35 39 0 15 3 31 7 34 4 4 122 6 262 5 l256 -3
3 -31z m-1280 -589 c134 -19 313 -59 427 -96 117 -39 385 -171 502 -248 l92
-61 83 56 c107 72 396 214 518 254 123 41 270 76 395 95 102 15 235 20 235 8
0 -7 -304 -1057 -326 -1124 l-15 -47 -117 -5 c-128 -5 -210 -24 -337 -77 -102
-43 -261 -150 -358 -240 l-77 -72 -87 77 c-113 99 -213 167 -329 222 -125 59
-225 84 -366 90 l-117 6 -15 46 c-30 92 -326 1115 -326 1125 0 11 114 6 218
-9z m900 -204 l3 -73 -36 22 c-20 12 -82 46 -138 76 l-102 54 135 -3 135 -2 3
-74z m392 13 c-68 -36 -130 -70 -137 -76 -10 -8 -13 5 -13 66 l0 76 138 0 137
0 -125 -66z m-880 -1045 c131 -36 344 -147 443 -232 l28 -23 -21 -67 c-34
-108 -104 -184 -194 -208 -64 -17 -173 -6 -239 24 -118 54 -220 186 -233 303
l-6 51 61 23 c33 12 61 25 61 28 0 4 -28 35 -62 70 l-63 64 75 -6 c41 -4 109
-16 150 -27z m1376 -38 l-68 -69 66 -22 c36 -12 66 -27 66 -34 0 -6 -7 -38
-15 -71 -33 -123 -100 -205 -220 -269 -56 -29 -67 -31 -160 -31 -113 0 -160
17 -210 77 -33 39 -72 119 -81 166 -8 42 20 73 130 144 166 106 360 173 516
177 l44 1 -68 -69z m172 -248 c20 -8 15 -36 -5 -28 -32 12 -37 10 -41 -11 -2
-15 3 -23 18 -27 13 -3 18 -11 14 -20 -5 -13 -13 -12 -57 8 -53 23 -64 40 -26
40 30 1 45 32 19 40 -11 3 -20 10 -20 14 0 18 15 19 49 5 20 -9 42 -18 49 -21z
m-1796 -14 c19 -44 15 -72 -6 -44 -11 15 -15 15 -49 -1 -28 -13 -40 -15 -49
-6 -8 8 0 15 31 28 27 10 41 22 40 33 -4 46 12 41 33 -10z m82 -132 c16 -22
18 -32 10 -45 -16 -24 -42 -27 -65 -6 -15 13 -22 14 -33 5 -11 -9 -16 -9 -22
0 -7 13 64 80 80 75 6 -1 19 -15 30 -29z m1601 2 c55 -40 51 -63 -9 -54 l-41
6 23 -20 c22 -19 29 -41 13 -41 -14 0 -86 61 -86 73 0 8 16 11 45 10 l45 -2
-28 23 c-15 12 -24 25 -21 29 11 10 12 10 59 -24z m-111 -133 c25 -31 33 -47
25 -52 -13 -8 -91 75 -83 88 10 15 22 7 58 -36z m-1459 -25 c7 -12 -12 -24
-25 -16 -11 7 -4 25 10 25 5 0 11 -4 15 -9z m1377 -40 c19 -34 23 -51 15 -54
-7 -2 -18 3 -25 12 -12 14 -13 13 -9 -6 7 -34 -11 -38 -41 -12 l-26 24 16 -26
c16 -25 15 -39 -3 -39 -11 0 -60 91 -53 101 9 16 27 10 56 -18 l28 -27 -11 32
c-12 36 -7 62 13 62 7 0 25 -22 40 -49z m-1125 -32 c-3 -12 2 -23 13 -29 15
-8 20 -6 25 10 7 21 20 26 29 11 10 -16 -35 -110 -49 -104 -10 3 -11 11 -5 29
7 19 6 26 -5 30 -18 7 -35 -3 -35 -22 0 -8 -7 -14 -15 -14 -20 0 -19 8 6 68
20 48 47 63 36 21z m229 0 c3 -6 2 -14 -3 -18 -10 -7 -11 -26 0 -37 13 -13 7
-67 -10 -86 -35 -38 -93 -9 -93 47 0 39 15 55 55 56 24 1 25 3 7 6 -19 4 -21
7 -11 19 6 7 15 11 20 8 5 -3 9 0 9 5 0 14 17 14 26 0z m569 -19 c-10 -11 -13
-20 -7 -20 12 0 35 -97 26 -111 -11 -18 -23 2 -34 56 -13 61 -7 95 17 95 14 0
14 -3 -2 -20z m-84 -95 c6 -55 -10 -82 -24 -40 -6 16 -16 25 -29 25 -17 0 -19
-4 -14 -25 5 -18 2 -25 -8 -25 -18 0 -26 22 -26 71 0 28 4 39 15 39 8 0 15 -9
15 -19 0 -14 5 -18 21 -14 14 4 19 11 16 25 -4 14 -1 18 11 16 12 -2 19 -17
23 -53z m-181 30 c16 -20 4 -32 -18 -19 -25 16 -42 6 -42 -26 0 -32 17 -42 42
-26 22 13 34 1 18 -19 -15 -18 -61 -20 -78 -3 -7 7 -12 28 -12 48 0 20 5 41
12 48 17 17 63 15 78 -3z"/>
<path d="M4176 5467 c2 -12 76 -265 162 -562 l158 -540 99 -8 c263 -20 503
-128 705 -315 l75 -69 75 66 c229 202 450 302 705 319 l99 7 58 200 c172 589
267 920 264 923 -8 7 -216 -20 -329 -43 -254 -52 -543 -172 -761 -316 -58 -38
-107 -69 -110 -69 -2 0 -40 24 -83 54 -146 100 -353 206 -501 255 -150 51
-403 102 -559 114 -60 5 -63 4 -57 -16z m1581 -477 c60 -36 64 -144 6 -190
-40 -32 -107 -28 -144 9 -24 25 -29 37 -29 78 1 26 7 59 14 72 28 51 97 65
153 31z m243 -5 c29 -26 26 -55 -5 -55 -14 0 -25 4 -25 10 0 5 -9 14 -20 20
-26 14 -58 -2 -71 -37 -25 -65 42 -134 82 -85 20 25 59 29 59 7 0 -32 -47 -65
-90 -65 -53 0 -87 23 -101 70 -17 55 -4 104 33 135 27 23 39 26 75 22 24 -2
53 -13 63 -22z m-1095 -10 c19 -18 25 -35 25 -70 0 -89 -40 -125 -141 -125
l-49 0 0 50 c0 28 -4 50 -10 50 -5 0 -10 9 -10 20 0 11 5 20 10 20 6 0 10 18
10 40 l0 40 70 0 c62 0 74 -3 95 -25z m219 -77 c20 -57 36 -106 36 -110 0 -5
-11 -8 -25 -8 -18 0 -26 7 -31 25 -5 21 -12 25 -45 25 -32 0 -41 -5 -51 -25
-7 -17 -19 -25 -35 -25 -28 0 -29 -6 17 122 34 95 36 98 66 98 31 0 32 -2 68
-102z m106 -9 c0 -109 0 -110 -22 -107 -22 3 -23 8 -26 111 l-3 107 26 0 25 0
0 -111z m210 71 l0 -40 40 0 40 0 0 40 c0 36 3 40 25 40 l25 0 0 -110 0 -110
-25 0 c-23 0 -25 3 -25 50 l0 50 -39 0 -40 0 -3 -47 c-3 -41 -6 -48 -25 -51
-23 -3 -23 -2 -23 107 l0 111 25 0 c23 0 25 -4 25 -40z m-360 -211 c0 -15 -5
-20 -22 -17 -34 5 -37 38 -4 38 20 0 26 -5 26 -21z m640 0 c0 -15 -5 -20 -22
-17 -34 5 -37 38 -4 38 20 0 26 -5 26 -21z m-758 -49 c40 -12 88 -61 88 -91 0
-28 -65 -27 -80 1 -27 51 -117 44 -145 -10 -29 -56 -11 -158 30 -174 31 -12
88 -6 107 11 29 26 22 43 -17 43 -33 0 -35 2 -35 35 l0 36 73 -3 72 -3 3 -92
3 -93 -31 0 c-24 0 -30 4 -30 22 0 21 0 21 -26 -3 -35 -33 -128 -35 -170 -3
-51 37 -68 70 -72 137 -5 84 24 143 88 175 48 24 85 27 142 12z m408 -30 c0
-29 -1 -30 -50 -30 l-50 0 0 -140 0 -140 -40 0 -40 0 0 140 0 140 -55 0 c-51
0 -55 2 -55 23 0 13 3 27 7 30 3 4 69 7 145 7 l138 0 0 -30z m124 -17 c8 -27
25 -82 37 -123 l22 -75 24 80 c51 170 46 160 86 163 23 2 37 -1 37 -8 0 -9
-31 -103 -102 -302 -8 -24 -16 -28 -46 -28 l-37 0 -54 158 c-29 86 -56 163
-58 170 -4 8 7 12 35 12 39 0 41 -1 56 -47z m526 17 c0 -29 -1 -30 -50 -30
l-50 0 0 -140 0 -140 -40 0 -40 0 0 140 0 140 -55 0 c-51 0 -55 2 -55 23 0 13
3 27 7 30 3 4 69 7 145 7 l138 0 0 -30z"/>
<path d="M5660 4950 c-53 -53 7 -161 67 -122 19 12 34 61 27 88 -7 25 -39 54
-61 54 -7 0 -22 -9 -33 -20z"/>
<path d="M4790 4940 c0 -15 7 -20 25 -20 18 0 25 -5 25 -20 0 -15 -7 -20 -25
-20 -20 0 -25 -5 -25 -25 0 -22 4 -25 35 -25 38 0 55 20 55 65 0 45 -17 65
-55 65 -28 0 -35 -4 -35 -20z"/>
<path d="M5043 4905 c-11 -34 -10 -35 14 -35 21 0 23 3 17 23 -14 46 -20 48
-31 12z"/>
<path d="M4565 3820 c-4 -6 -2 -17 4 -23 15 -15 25 -2 13 19 -7 12 -11 13 -17
4z"/>
<path d="M5041 3518 c-12 -31 -3 -50 23 -46 16 2 21 10 21 33 0 38 -31 47 -44
13z"/>
</g>
</svg>
